<?xml version="1.0" standalone="no"?>
<!DOCTYPE svg PUBLIC "-//W3C//DTD SVG 20010904//EN"
 "http://www.w3.org/TR/2001/REC-SVG-20010904/DTD/svg10.dtd">
<svg version="1.0" xmlns="http://www.w3.org/2000/svg"
 width="907.000000pt" height="907.000000pt" viewBox="0 0 907.000000 907.000000"
 preserveAspectRatio="xMidYMid meet">
<metadata>
Created by potrace 1.14, written by Peter Selinger 2001-2017
</metadata>
<g transform="translate(0.000000,907.000000) scale(0.100000,-0.100000)"
fill="#000000" stroke="none">
<path d="M6858 7295 c-2 -2 -34 -6 -72 -10 -382 -38 -779 -211 -1081 -471
-105 -90 -268 -261 -315 -329 -8 -12 -33 -49 -55 -81 -22 -33 -43 -60 -47 -62
-5 -2 -8 -7 -8 -11 0 -5 -22 -46 -48 -92 -26 -46 -65 -123 -87 -171 l-38 -88
-2234 0 c-1979 0 -2243 -2 -2311 -16 -83 -16 -237 -86 -287 -130 -16 -14 -37
-31 -45 -38 -22 -16 -120 -131 -120 -140 0 -4 -8 -20 -18 -34 -28 -40 -60
-128 -77 -207 -13 -60 -14 -276 -12 -1565 1 -822 6 -1506 10 -1520 5 -14 10
-36 13 -50 8 -39 65 -157 99 -205 49 -70 125 -146 181 -183 26 -17 168 -86
185 -90 8 -2 21 -5 29 -7 8 -2 35 -8 60 -14 52 -12 7150 -11 7188 2 12 4 32 9
45 12 90 19 232 102 312 182 67 67 168 230 154 246 -2 2 1 10 8 18 6 8 18 43
27 79 12 54 15 168 16 663 l1 598 37 32 c43 37 172 166 172 172 0 2 12 17 26
32 15 15 53 64 85 108 81 110 90 124 88 131 0 4 4 10 9 13 25 15 172 310 172
343 0 8 4 18 9 24 10 9 81 234 85 269 2 11 6 29 9 40 4 11 9 38 12 60 3 22 12
83 19 135 13 91 15 448 3 510 -3 14 -8 45 -12 70 -14 92 -17 107 -41 201 -48
192 -127 388 -216 537 -21 34 -38 67 -38 72 0 6 -4 10 -8 10 -5 0 -14 11 -20
24 -5 13 -41 63 -78 112 -104 137 -208 245 -369 384 -19 16 -129 94 -163 115
-92 58 -132 79 -222 123 -86 41 -207 92 -230 97 -12 3 -97 28 -120 36 -23 8
-38 11 -107 24 -16 3 -39 8 -53 11 -72 17 -242 32 -372 32 -81 0 -148 -2 -150
-3z"/>
</g>
</svg>
