<?xml version="1.0" standalone="no"?>
<!DOCTYPE svg PUBLIC "-//W3C//DTD SVG 20010904//EN"
 "http://www.w3.org/TR/2001/REC-SVG-20010904/DTD/svg10.dtd">
<svg version="1.0" xmlns="http://www.w3.org/2000/svg"
 width="1600.000000pt" height="1600.000000pt" viewBox="0 0 1600.000000 1600.000000"
 preserveAspectRatio="xMidYMid meet">
<metadata>
Created by potrace 1.14, written by Peter Selinger 2001-2017
</metadata>
<g transform="translate(0.000000,1600.000000) scale(0.100000,-0.100000)"
fill="#000000" stroke="none">
<path d="M8245 15790 c-370 -22 -682 -58 -995 -114 -1322 -239 -2511 -797
-3530 -1656 -534 -450 -1021 -992 -1406 -1563 -36 -53 -70 -100 -75 -103 -6
-3 -25 6 -44 21 -42 32 -47 15 -10 -39 l25 -37 -45 -70 c-25 -38 -45 -72 -45
-74 0 -3 -15 -28 -34 -57 -75 -118 -263 -475 -347 -659 -386 -845 -592 -1616
-695 -2609 -21 -208 -30 -879 -15 -1118 61 -918 264 -1793 607 -2608 133 -317
305 -664 441 -891 24 -40 43 -75 43 -77 0 -11 252 -401 347 -536 77 -111 300
-404 371 -489 437 -522 989 -1043 1468 -1386 416 -298 730 -489 1163 -705 191
-96 250 -122 487 -220 727 -301 1475 -488 2234 -559 583 -55 1029 -51 1658 15
234 24 617 93 887 159 883 215 1659 555 2400 1050 245 164 625 452 680 516 12
14 2 9 -25 -12 -601 -475 -1311 -872 -2035 -1139 -459 -169 -896 -284 -1380
-365 -464 -78 -740 -100 -1265 -100 -522 0 -807 22 -1276 100 -714 119 -1390
330 -2039 637 -271 128 -456 226 -705 377 -224 134 -534 345 -693 470 -290
227 -432 349 -649 554 -274 260 -598 615 -789 867 -36 47 -87 114 -114 149
-144 184 -383 549 -526 804 -44 78 -89 158 -100 177 -46 82 -195 385 -246 500
-247 564 -402 1043 -524 1620 -35 166 -98 579 -113 740 -53 563 -44 1340 20
1780 121 831 299 1452 616 2155 62 137 215 444 234 470 30 41 366 80 555 65
247 -20 482 -103 654 -230 31 -23 59 -39 62 -37 3 3 -7 29 -22 59 -93 185
-313 334 -559 377 -177 32 -421 -10 -563 -95 -31 -19 -58 -32 -60 -30 -5 4
132 240 161 279 13 17 19 16 122 -14 279 -80 469 -100 919 -97 372 3 337 7
753 -84 150 -33 278 -58 284 -56 18 6 -148 175 -237 240 -44 33 -118 78 -165
100 -235 113 -432 142 -700 105 -63 -9 -178 -21 -255 -27 -145 -10 -615 -14
-615 -5 0 16 273 390 394 540 249 309 563 639 856 897 206 182 223 196 455
371 661 501 1395 882 2185 1136 889 285 1811 402 2775 351 1406 -74 2825 -565
4005 -1383 329 -228 554 -408 892 -713 169 -154 148 -126 -62 81 -168 165
-351 326 -558 492 -913 729 -1937 1229 -3077 1502 -116 27 -238 54 -270 60
-33 5 -152 26 -265 45 -198 34 -455 64 -745 86 -193 15 -699 20 -880 10z"/>
<path d="M5390 13815 c0 -26 75 -132 139 -195 153 -151 362 -267 881 -490 422
-181 500 -237 551 -399 27 -83 29 -241 5 -351 -28 -128 -29 -139 -3 -78 46
105 61 184 61 318 0 139 -13 186 -73 274 -74 106 -252 203 -766 416 -410 169
-645 312 -755 459 -22 29 -40 50 -40 46z"/>
<path d="M6582 13296 c118 -48 151 -66 313 -169 196 -125 525 -380 608 -470
138 -152 278 -450 332 -709 18 -82 76 -171 195 -298 l71 -75 -56 80 c-82 117
-144 225 -154 265 -5 19 -14 71 -20 115 -25 160 -122 410 -215 549 -70 106
-140 176 -292 294 -264 206 -522 356 -731 425 -152 51 -182 46 -51 -7z"/>
<path d="M14315 13310 c10 -11 20 -20 23 -20 3 0 -3 9 -13 20 -10 11 -20 20
-23 20 -3 0 3 -9 13 -20z"/>
<path d="M5235 13249 c-299 -51 -365 -59 -452 -57 -87 3 -106 6 -132 26 -33
24 -37 22 -21 -9 14 -25 72 -54 140 -68 75 -17 333 -15 510 4 80 8 196 20 258
26 132 14 207 4 312 -40 191 -80 369 -217 693 -532 75 -74 137 -131 137 -128
0 12 -145 223 -204 299 -104 133 -291 309 -409 387 -150 100 -302 153 -427
152 -30 0 -212 -27 -405 -60z"/>
<path d="M3746 13090 c44 -154 114 -277 226 -395 97 -102 174 -160 289 -214
149 -72 307 -98 483 -82 119 12 156 19 326 66 249 69 479 92 598 61 103 -28
163 -79 206 -176 l16 -35 -3 55 c-6 108 -71 190 -191 245 -109 50 -164 60
-321 59 -145 -1 -179 -5 -405 -54 -323 -69 -506 -59 -718 41 -158 73 -311 202
-428 359 -35 47 -70 94 -78 105 -13 18 -13 13 0 -35z"/>
<path d="M5910 12918 c0 -8 20 -54 45 -103 75 -147 182 -279 317 -391 110 -92
171 -133 339 -230 269 -155 399 -250 425 -308 7 -17 13 -24 14 -16 0 23 -35
76 -83 123 -66 66 -156 131 -336 244 -218 138 -300 197 -408 298 -108 100
-183 191 -257 309 -31 49 -56 82 -56 74z"/>
<path d="M7389 12644 c105 -120 137 -287 108 -569 -8 -77 -13 -142 -11 -144 7
-7 62 124 80 190 25 96 23 256 -4 339 -27 80 -82 155 -146 198 -67 44 -75 40
-27 -14z"/>
<path d="M5792 12219 c-121 -21 -300 -96 -487 -205 -170 -98 -364 -192 -421
-204 -32 -7 -76 -10 -98 -7 -26 4 -35 2 -25 -4 25 -16 144 -10 212 11 35 11
185 80 333 153 291 144 347 168 439 191 181 43 237 33 468 -85 172 -87 273
-130 306 -128 14 0 14 1 1 6 -46 17 -201 100 -310 167 -69 42 -147 83 -175 92
-65 19 -176 25 -243 13z"/>
<path d="M5245 11813 c-16 -2 -118 -24 -225 -48 -273 -61 -378 -76 -591 -82
-190 -6 -335 5 -439 32 -49 12 -53 12 -35 -1 49 -37 241 -80 421 -94 212 -18
452 13 772 99 269 73 469 65 577 -22 l40 -32 -23 32 c-59 83 -149 115 -332
118 -74 2 -148 1 -165 -2z"/>
<path d="M7474 11736 c-22 -7 -58 -23 -80 -34 -21 -12 -68 -26 -104 -31 l-65
-10 70 4 c48 2 87 12 125 29 75 35 172 36 221 3 45 -30 105 -118 126 -185 l17
-54 143 -69 c194 -93 333 -149 557 -225 104 -36 215 -79 247 -96 69 -36 137
-93 126 -104 -4 -4 -42 7 -85 25 -102 43 -114 46 -169 30 -32 -9 -60 -27 -90
-57 l-43 -45 -59 18 c-74 22 -123 10 -147 -37 -43 -83 67 -247 189 -283 28 -8
57 -15 64 -15 26 0 93 -40 109 -66 19 -28 32 -243 17 -281 -4 -11 -58 -68
-120 -126 -185 -173 -326 -240 -709 -334 l-221 -54 -37 -165 c-43 -190 -52
-271 -61 -519 -7 -206 5 -297 53 -400 39 -81 82 -129 148 -161 83 -41 147 -33
299 38 66 30 134 58 152 62 30 7 32 5 56 -46 14 -29 36 -102 48 -161 12 -59
25 -107 29 -107 14 0 70 162 70 201 0 22 -10 77 -22 122 -37 143 -25 323 27
391 13 17 37 59 52 91 23 50 28 73 28 142 0 45 -3 84 -6 88 -4 3 -23 -4 -43
-16 l-36 -21 0 32 c0 82 133 202 392 354 65 38 103 66 113 86 21 40 61 212 81
340 23 158 21 385 -5 480 -11 41 -21 98 -21 127 0 44 4 54 28 72 l27 21 -28
-11 c-48 -21 -54 -67 -27 -209 19 -100 22 -140 17 -227 -13 -200 -60 -447
-106 -548 -15 -33 -32 -47 -89 -77 l-70 -38 40 78 c53 103 58 153 25 224 -35
76 -62 105 -30 33 32 -73 34 -141 5 -205 -35 -81 -102 -158 -186 -217 -103
-73 -155 -121 -201 -188 -37 -53 -37 -54 -34 -138 2 -47 8 -89 12 -93 4 -4 21
0 37 10 27 15 30 16 30 1 0 -25 -47 -118 -79 -159 -35 -44 -50 -107 -58 -241
l-6 -100 -56 0 c-45 -1 -81 -11 -186 -57 -169 -72 -179 -74 -235 -46 -55 28
-91 80 -122 173 -21 64 -23 85 -20 245 1 96 7 225 12 285 10 108 61 351 77
365 4 4 19 10 33 13 l25 6 -3 -139 c-8 -301 52 -499 168 -557 53 -27 78 -28
151 -7 165 49 214 252 124 519 -22 65 -77 197 -80 193 -1 -2 8 -55 22 -118 45
-217 42 -401 -9 -465 -37 -47 -117 -76 -161 -59 -13 5 -12 16 9 76 34 101 40
158 20 196 -21 40 -29 40 -55 0 -25 -41 -89 -104 -97 -96 -22 22 -63 258 -67
382 l-2 79 147 37 c337 85 505 172 705 366 88 86 114 118 122 149 22 83 7 293
-25 357 -18 34 -69 74 -120 92 -33 12 -36 15 -19 21 99 34 145 75 145 127 0
34 -24 79 -51 96 -14 9 -13 4 6 -25 48 -69 28 -114 -68 -159 -103 -48 -149
-42 -212 27 -31 34 -54 84 -44 94 2 2 28 -3 58 -11 74 -19 123 -6 154 41 12
19 37 42 55 50 31 15 35 15 121 -20 49 -19 94 -35 100 -35 7 0 3 -13 -10 -32
-24 -33 -37 -116 -25 -163 5 -19 13 -25 32 -25 20 0 24 3 16 13 -13 16 57 181
78 183 47 5 59 16 53 48 -8 47 -48 110 -94 149 -54 46 -182 108 -294 142 -263
79 -532 178 -702 257 -72 33 -72 34 -113 115 -76 153 -178 209 -306 169z m493
-2505 c-4 -32 -16 -84 -28 -116 -20 -53 -22 -55 -39 -40 -9 8 -25 33 -35 55
l-17 39 53 60 c30 33 58 61 63 61 5 0 6 -26 3 -59z"/>
<path d="M6854 11600 c-59 -112 -148 -200 -202 -200 -36 0 -62 -46 -62 -110 0
-163 171 -544 298 -663 56 -51 87 -139 182 -502 104 -399 108 -407 90 -205
-36 391 -118 666 -224 754 -125 102 -313 493 -304 631 3 48 3 49 61 78 64 33
114 90 161 185 58 115 58 141 0 32z"/>
<path d="M7829 11605 c40 -26 103 -56 140 -67 101 -31 194 -84 271 -155 39
-36 70 -61 70 -56 0 5 -13 30 -29 55 -65 102 -177 178 -298 202 -38 7 -90 22
-118 33 -101 40 -113 36 -36 -12z"/>
<path d="M5635 11544 c-111 -24 -204 -65 -247 -111 -90 -95 -89 -246 2 -440
48 -104 110 -197 218 -331 l83 -104 -1 -299 c0 -713 -63 -1147 -209 -1455 -88
-185 -206 -338 -357 -463 -214 -177 -449 -275 -804 -337 -91 -15 -552 -33
-540 -21 3 3 50 22 104 41 271 98 503 269 639 471 l41 60 -96 -91 c-253 -241
-574 -372 -990 -406 -191 -15 -367 -2 -678 51 -382 65 -605 72 -759 24 -117
-36 -163 -130 -101 -204 l20 -24 -6 32 c-17 87 20 109 181 106 98 -1 370 -34
409 -49 31 -12 548 -583 711 -784 83 -103 255 -354 255 -372 0 -6 -20 -46 -45
-89 -73 -127 -107 -242 -112 -379 -4 -107 -2 -123 27 -220 93 -310 106 -386
97 -578 -4 -93 -13 -157 -35 -242 l-29 -114 37 42 c50 56 114 181 139 270 50
183 49 367 -6 564 -14 51 -32 115 -39 143 -18 65 -18 204 1 284 21 89 26 92
47 31 18 -54 77 -155 85 -146 15 14 45 165 50 246 4 73 2 109 -11 152 -9 31
-16 61 -16 66 0 11 154 225 206 286 19 22 32 42 29 44 -8 8 -164 -101 -231
-162 l-62 -56 -50 78 c-153 235 -519 600 -847 844 -46 35 -82 64 -80 66 2 2
75 -6 162 -19 219 -32 606 -34 758 -4 111 22 150 23 375 9 577 -35 1011 104
1336 430 312 313 442 680 484 1361 11 185 12 589 1 752 l-6 102 25 -7 c14 -4
54 -7 90 -6 54 0 82 8 163 44 112 49 306 174 387 249 68 63 79 65 -255 -41
-293 -93 -329 -97 -392 -37 -44 42 -63 85 -63 144 0 62 21 99 75 130 119 70
195 54 276 -59 l29 -39 0 34 c0 121 -88 213 -215 226 -38 4 -73 0 -126 -16
-61 -19 -81 -31 -129 -79 -66 -66 -90 -124 -90 -216 l0 -61 -20 25 c-69 90
-146 258 -156 340 -9 76 9 133 57 185 64 70 167 108 336 124 l88 8 -100 0
c-55 1 -109 -1 -120 -3z"/>
<path d="M5020 11424 c-196 -167 -417 -298 -581 -345 -68 -19 -108 -23 -209
-24 -175 0 -253 24 -500 156 -144 77 -309 144 -425 173 -153 38 -498 86 -621
86 -58 0 -65 -2 -54 -15 23 -28 214 -141 440 -262 268 -143 297 -160 461 -269
152 -101 282 -164 404 -196 75 -19 114 -23 235 -22 126 0 156 4 230 26 47 15
86 26 86 25 1 -1 -11 -42 -28 -90 -42 -128 -36 -134 49 -53 74 69 156 173 188
236 10 19 50 67 89 105 94 91 164 185 219 293 39 76 92 220 84 228 -1 2 -32
-22 -67 -52z"/>
<path d="M7446 11245 c-49 -15 -104 -25 -142 -25 -46 0 -68 -5 -85 -19 l-24
-19 47 5 c35 4 66 -1 124 -21 109 -38 224 -51 332 -36 48 6 91 15 96 20 17 17
-19 65 -69 90 -72 36 -174 38 -279 5z"/>
<path d="M8039 11024 c57 -108 58 -110 45 -151 -16 -58 -55 -108 -145 -186
-120 -104 -169 -198 -169 -326 0 -171 97 -276 263 -287 l72 -4 -68 22 c-48 15
-83 35 -117 65 -64 57 -84 110 -78 201 8 108 41 168 152 277 103 100 141 162
152 243 l6 50 -65 84 c-101 129 -112 132 -48 12z"/>
<path d="M5155 10989 c-16 -21 -91 -102 -165 -181 -139 -148 -357 -390 -422
-468 l-36 -44 -89 0 c-70 0 -103 6 -165 27 -120 43 -202 57 -340 57 -170 0
-323 -21 -503 -70 -365 -100 -762 -300 -1095 -552 -152 -114 -171 -131 -145
-125 11 3 81 33 155 67 433 197 888 350 1190 400 270 46 491 37 671 -26 138
-49 299 -44 426 12 59 25 89 64 250 322 183 291 385 731 268 581z"/>
<path d="M5101 9533 c-143 -327 -186 -388 -345 -487 -222 -138 -647 -270
-1120 -346 -223 -36 -617 -90 -657 -90 -16 0 -29 -4 -29 -9 0 -14 312 -24 483
-17 1028 46 1641 315 1731 761 8 39 17 100 21 138 8 69 -1 197 -13 197 -4 0
-36 -66 -71 -147z"/>
<path d="M4490 9586 c-157 -44 -312 -148 -407 -273 -14 -18 -24 -35 -21 -38 9
-9 133 27 202 60 115 55 257 173 297 247 12 22 -3 23 -71 4z"/>
<path d="M6028 9072 c-137 -142 -207 -279 -230 -451 -13 -105 -2 -178 57 -374
43 -141 85 -339 85 -399 0 -24 -9 -61 -20 -83 -11 -21 -18 -40 -16 -42 8 -9
69 53 87 89 49 95 46 307 -7 533 -34 146 -40 205 -32 300 9 105 45 224 113
380 31 70 55 129 52 131 -2 2 -42 -35 -89 -84z"/>
<path d="M6787 8990 c-48 -87 -94 -231 -107 -338 -11 -87 -5 -228 11 -237 22
-15 112 192 135 312 15 79 18 274 5 308 -6 16 -13 9 -44 -45z"/>
<path d="M6326 8813 c66 -134 68 -288 4 -486 -17 -53 -38 -131 -46 -173 -15
-82 -19 -194 -6 -194 16 0 93 160 127 265 68 206 70 375 6 511 -27 58 -94 144
-111 144 -4 0 7 -30 26 -67z"/>
<path d="M7335 8558 c-3 -7 -23 -123 -45 -258 -95 -574 -151 -809 -216 -904
-23 -34 -24 -37 -6 -24 61 42 132 168 180 318 61 190 91 397 99 683 5 175 2
224 -12 185z"/>
<path d="M5310 8351 c-117 -86 -209 -205 -266 -345 -33 -80 -41 -116 -26 -116
4 0 32 19 63 43 74 55 158 149 208 234 39 66 95 206 89 224 -2 4 -32 -13 -68
-40z"/>
<path d="M7839 8174 c-109 -73 -162 -96 -226 -97 -40 -1 -60 4 -83 21 -39 29
-39 11 0 -22 74 -61 182 -44 331 53 80 52 99 57 143 36 40 -19 53 -43 116
-218 23 -65 44 -116 46 -114 5 4 -40 223 -55 276 -12 39 -53 86 -93 107 -52
27 -89 18 -179 -42z"/>
<path d="M5267 7976 c-150 -62 -267 -168 -333 -301 -34 -69 -39 -87 -42 -170
-3 -72 1 -113 18 -186 41 -167 30 -371 -46 -889 -19 -129 -40 -274 -46 -322
-7 -49 -15 -88 -18 -88 -3 0 -16 75 -28 168 -13 92 -38 282 -57 422 -19 140
-35 256 -35 258 0 1 -161 1 -357 0 l-358 -3 0 -1635 0 -1635 218 -3 217 -2 1
1237 c0 700 4 1229 9 1218 5 -11 29 -162 54 -335 67 -460 141 -968 186 -1270
21 -146 58 -391 80 -545 22 -154 43 -286 45 -292 3 -10 54 -13 209 -13 205 0
206 0 211 23 4 22 12 75 95 637 45 311 114 780 194 1325 30 204 58 397 63 430
5 35 10 -458 13 -1175 l5 -1235 238 -3 237 -2 0 1640 0 1640 -357 -2 -358 -3
-12 -85 c-7 -47 -24 -170 -38 -275 -14 -104 -46 -336 -70 -515 -48 -348 -126
-927 -171 -1258 -15 -112 -30 -199 -34 -195 -4 4 -21 116 -39 248 -17 132 -51
389 -76 570 -25 182 -50 372 -57 422 l-12 93 34 67 c172 346 289 794 290 1103
0 139 -12 215 -50 338 -65 203 -25 337 158 533 46 49 82 89 80 89 -1 0 -29
-11 -61 -24z"/>
<path d="M6683 7805 c-67 -49 -137 -123 -185 -193 -57 -82 -135 -272 -113
-272 31 0 195 157 252 240 56 83 120 233 111 261 -2 6 -31 -10 -65 -36z"/>
<path d="M6270 6860 c0 -5 135 -429 300 -941 l300 -932 0 -699 0 -698 250 0
250 0 0 698 0 699 300 933 c165 513 300 937 300 942 0 4 -108 7 -241 6 l-241
-3 -38 -130 c-21 -71 -86 -301 -145 -510 -143 -511 -157 -555 -167 -555 -4 0
-8 6 -8 14 0 7 -42 161 -94 342 -51 181 -126 445 -166 587 l-73 257 -263 0
c-166 0 -264 -4 -264 -10z"/>
<path d="M8200 5230 l0 -1640 250 0 250 0 2 703 3 702 75 3 c94 4 220 -12 263
-34 68 -35 100 -78 125 -174 12 -43 16 -166 21 -570 6 -476 8 -519 26 -570
l20 -55 254 -3 c239 -2 253 -1 246 15 -36 94 -38 125 -45 638 -6 406 -10 527
-23 595 -41 216 -113 327 -256 397 -47 23 -52 28 -36 37 142 84 217 171 259
305 42 133 48 206 44 486 -5 288 -16 354 -80 485 -42 87 -150 195 -238 237
-147 71 -255 83 -762 83 l-398 0 0 -1640z m860 1140 c48 -27 83 -71 102 -129
16 -52 23 -479 8 -556 -33 -165 -110 -216 -335 -219 l-130 -1 -3 469 -2 468
157 -4 c146 -3 161 -5 203 -28z"/>
<path d="M10030 5230 l0 -1640 250 0 250 0 0 1640 0 1640 -250 0 -250 0 0
-1640z"/>
<path d="M11295 6861 c-5 -9 -29 -156 -135 -826 -22 -137 -60 -376 -84 -530
-45 -281 -109 -686 -192 -1215 -25 -157 -60 -376 -78 -488 -18 -111 -30 -204
-28 -207 9 -8 462 -6 462 3 0 12 80 585 86 610 l4 22 285 0 c221 0 285 -3 285
-12 1 -7 20 -150 44 -318 l42 -305 244 -3 c134 -1 247 1 251 5 4 5 1 44 -7 88
-8 44 -34 208 -59 365 -41 262 -80 510 -185 1170 -21 135 -55 349 -74 475 -20
127 -52 327 -71 445 -69 432 -115 719 -115 724 0 10 -668 7 -675 -3z m354
-813 c18 -134 50 -369 71 -523 22 -154 55 -397 75 -540 19 -143 37 -270 40
-282 l5 -23 -225 0 c-139 0 -225 4 -225 10 0 5 20 157 44 337 104 761 156
1152 162 1206 4 31 10 57 13 57 4 0 22 -109 40 -242z"/>
<path d="M12730 5230 l0 -1640 215 0 215 0 0 1235 c0 679 4 1235 8 1235 5 0
13 -37 20 -82 6 -46 34 -238 62 -428 28 -190 69 -469 90 -620 22 -151 51 -349
65 -440 14 -91 48 -320 75 -510 28 -190 53 -355 55 -367 5 -23 6 -23 211 -23
154 0 206 3 209 13 3 6 23 136 45 287 43 300 111 761 190 1300 28 190 66 458
86 595 19 138 39 259 44 270 5 12 9 -507 9 -1222 l1 -1243 235 0 235 0 0 1640
0 1640 -355 0 -355 0 -5 -22 c-2 -13 -23 -158 -45 -323 -22 -165 -54 -397 -70
-515 -16 -118 -50 -366 -75 -550 -104 -778 -124 -923 -129 -927 -7 -7 -14 36
-41 245 -13 106 -40 306 -59 445 -20 139 -58 421 -86 627 -98 729 -131 965
-136 993 l-6 27 -354 0 -354 0 0 -1640z"/>
<path d="M10537 3110 c-213 -26 -287 -204 -137 -332 22 -19 82 -58 135 -87
135 -75 171 -104 185 -146 28 -86 -54 -140 -159 -104 -35 12 -51 41 -51 90 l0
29 -96 0 -96 0 4 -58 c3 -39 11 -69 26 -89 95 -134 500 -119 566 21 20 42 21
128 1 165 -23 46 -98 105 -208 165 -141 78 -177 112 -177 168 0 46 31 68 98
68 76 0 102 -18 102 -71 l0 -39 100 0 100 0 0 36 c0 136 -160 211 -393 184z"/>
<path d="M13775 3111 c-112 -14 -195 -68 -215 -140 -5 -20 -10 -136 -10 -259
0 -237 5 -269 52 -319 33 -35 123 -64 218 -70 149 -9 269 27 315 95 22 32 25
48 25 119 l0 83 -95 0 -95 0 0 -66 c0 -36 -5 -74 -10 -84 -24 -44 -140 -50
-181 -9 -18 18 -19 35 -19 257 0 236 0 239 23 260 19 18 35 22 84 22 55 0 64
-3 82 -26 15 -20 21 -41 21 -80 l0 -54 95 0 95 0 0 65 c0 75 -15 110 -60 149
-56 47 -199 72 -325 57z"/>
<path d="M3990 2787 c0 -320 0 -324 23 -358 53 -78 126 -104 292 -103 126 1
177 13 236 55 63 45 64 51 64 404 l0 320 -97 3 -98 3 0 -305 c0 -211 -4 -313
-12 -331 -21 -46 -135 -59 -179 -19 -17 16 -19 39 -21 333 l-3 316 -102 3
-103 3 0 -324z"/>
<path d="M4757 3104 c-4 -4 -7 -180 -7 -391 l0 -383 95 0 95 0 2 280 3 280 84
-193 c47 -105 101 -230 122 -277 l37 -85 106 -3 106 -3 0 391 0 390 -90 0 -90
0 -2 -236 -3 -237 -48 114 c-26 63 -71 168 -100 234 l-53 120 -125 3 c-69 1
-128 -1 -132 -4z"/>
<path d="M5560 2720 l0 -390 280 0 280 0 0 55 0 55 -175 0 -175 0 0 120 0 120
140 0 140 0 0 55 0 55 -140 0 -140 0 0 105 0 105 175 0 175 0 0 55 0 55 -280
0 -280 0 0 -390z"/>
<path d="M6492 3092 c2 -10 46 -185 98 -390 l95 -372 140 2 139 3 42 165 c23
91 67 263 98 383 31 119 56 220 56 222 0 3 -42 5 -94 5 l-95 0 -21 -97 c-53
-237 -112 -488 -115 -491 -5 -5 -15 37 -60 238 -21 91 -47 206 -59 255 l-21
90 -103 3 c-96 2 -103 1 -100 -16z"/>
<path d="M7260 3108 c0 -2 -1 -177 -3 -391 l-2 -387 103 0 102 0 0 390 0 390
-100 0 c-55 0 -100 -1 -100 -2z"/>
<path d="M7620 2720 l0 -390 280 0 280 0 0 55 0 55 -177 2 -178 3 0 115 0 115
143 3 142 3 0 54 0 55 -145 0 -146 0 3 103 3 102 178 3 177 2 0 55 0 55 -280
0 -280 0 0 -390z"/>
<path d="M8608 3104 c-5 -4 -8 -180 -8 -391 l0 -385 223 5 c230 4 269 10 328
50 69 46 74 66 77 313 4 249 -2 287 -52 337 -57 57 -114 69 -351 74 -115 3
-213 2 -217 -3z m390 -139 c21 -25 22 -32 22 -246 0 -125 -4 -228 -10 -239
-14 -26 -63 -40 -136 -40 l-64 0 0 273 c0 151 3 277 8 281 4 5 41 6 82 3 65
-5 78 -9 98 -32z"/>
<path d="M9370 2720 l0 -390 280 0 280 0 0 55 0 55 -175 0 -175 0 0 120 0 120
140 0 140 0 0 55 0 55 -140 0 -140 0 0 105 0 105 175 0 175 0 0 55 0 55 -280
0 -280 0 0 -390z"/>
<path d="M11050 2720 l0 -390 280 0 280 0 0 55 0 55 -174 0 -175 0 -3 104 c-2
57 -2 111 0 120 3 14 22 16 143 16 l139 0 0 55 0 55 -139 0 -140 0 -3 95 c-2
53 -1 100 0 105 2 6 73 10 178 10 l174 0 0 55 0 55 -280 0 -280 0 0 -390z"/>
<path d="M11737 3103 c-4 -3 -7 -179 -7 -390 l0 -383 105 0 105 0 0 165 0 165
65 0 c69 0 118 -17 129 -45 3 -9 6 -65 6 -125 0 -60 4 -120 10 -134 9 -26 11
-26 115 -26 83 0 104 3 98 13 -4 6 -10 74 -13 149 -6 156 -15 177 -87 214
l-40 21 40 19 c65 30 82 62 82 152 0 172 -82 211 -436 212 -91 0 -169 -3 -172
-7z m338 -113 c53 -12 65 -32 65 -105 0 -86 -22 -106 -125 -113 l-75 -5 0 110
c0 60 3 113 7 116 9 10 81 8 128 -3z"/>
<path d="M12436 3102 c-2 -4 39 -179 93 -387 l98 -380 139 0 138 0 93 359 c51
198 95 372 98 388 l7 28 -95 0 -95 0 -17 -77 c-71 -329 -125 -551 -125 -520 0
4 -29 136 -65 294 -36 159 -65 291 -65 296 0 10 -197 9 -204 -1z"/>
<path d="M13208 2743 c-2 -203 -2 -378 0 -390 3 -22 7 -23 103 -23 l99 0 0
390 0 390 -100 0 -100 0 -2 -367z"/>
<path d="M14287 3103 c-4 -3 -7 -179 -7 -390 l0 -383 280 0 280 0 0 55 0 55
-175 0 -175 0 0 120 0 120 140 0 140 0 0 55 0 55 -140 0 -140 0 0 105 0 105
175 0 175 0 0 55 0 55 -273 0 c-151 0 -277 -3 -280 -7z"/>
<path d="M13859 2023 c-13 -16 -12 -17 4 -4 16 13 21 21 13 21 -2 0 -10 -8
-17 -17z"/>
</g>
</svg>
